<svg width="24" height="24" viewBox="0 0 24 24" fill="none" xmlns="http://www.w3.org/2000/svg">
<path d="M9.89171 18.7083C8.37433 18.7083 7.0686 18.1972 5.97452 17.175C4.88042 16.1528 4.33337 14.8909 4.33337 13.3896C4.33337 11.8882 4.88042 10.6264 5.97452 9.60415C7.0686 8.58194 8.37433 8.07081 9.89171 8.07081H16.9355L14.2042 5.33956L15.2105 4.33331L19.6667 8.78956L15.2105 13.2458L14.2042 12.2396L16.9355 9.50831H9.86775C8.74971 9.50831 7.78735 9.87967 6.98077 10.6224C6.17419 11.3651 5.77087 12.2875 5.77087 13.3896C5.77087 14.4916 6.17419 15.414 6.98077 16.1568C7.78735 16.8995 8.74971 17.2708 9.86775 17.2708H17.2948V18.7083H9.89171Z" fill="black"/>
</svg>
